<svg width="520" height="574" viewBox="0 0 520 574" fill="none" xmlns="http://www.w3.org/2000/svg">
<mask id="mask0" mask-type="alpha" maskUnits="userSpaceOnUse" x="0" y="62" width="520" height="512">
<path fill-rule="evenodd" clip-rule="evenodd" d="M0.00115967 62.3014H519.785V573.31H0.00115967V62.3014Z" fill="white"/>
</mask>
<g mask="url(#mask0)">
<path fill-rule="evenodd" clip-rule="evenodd" d="M456.451 550.18C443.001 558.28 427.351 564.13 410.101 567.93C398.651 570.43 386.451 572.08 373.751 572.78C327.051 575.63 273.351 566.88 221.601 549.38C210.001 545.48 198.501 541.13 187.201 536.33C103.051 500.93 29.901 443.13 9.40099 376.13C-28.049 253.83 52.351 165.88 145.451 85.18C183.201 52.43 232.401 57.13 283.301 84.78C295.201 91.23 307.151 98.93 319.101 107.68C363.951 140.63 408.351 188.58 445.851 241.88C519.451 346.53 562.051 486.73 456.451 550.18Z" fill="#FDE6D6"/>
</g>
<path fill-rule="evenodd" clip-rule="evenodd" d="M417.217 155.935C408.532 138.425 405.352 116.265 422.767 109.13C442.217 101.165 473.207 114.045 482.227 143.27C487.992 161.945 486.012 188.015 470.082 198.035C456.452 206.615 427.872 177.41 417.217 155.935Z" fill="#E8E5EA"/>
<path fill-rule="evenodd" clip-rule="evenodd" d="M141.485 66.8425C141.47 66.8425 141.455 66.8425 141.44 66.8425C138.095 66.6125 134.74 66.4875 131.48 66.4675C131.13 66.4675 130.855 66.1875 130.855 65.8425C130.86 65.4975 131.135 65.2175 131.48 65.2175H131.485C134.775 65.2375 138.155 65.3625 141.53 65.5925C141.875 65.6175 142.13 65.9175 142.11 66.2625C142.085 66.5925 141.81 66.8425 141.485 66.8425ZM111.515 67.8025C111.21 67.8025 110.94 67.5775 110.895 67.2675C110.845 66.9275 111.08 66.6075 111.425 66.5575C114.655 66.0875 118.025 65.7375 121.43 65.5125C121.82 65.4475 122.075 65.7525 122.095 66.0975C122.12 66.4375 121.86 66.7375 121.515 66.7575C118.14 66.9825 114.805 67.3325 111.605 67.7925C111.575 67.7975 111.545 67.8025 111.515 67.8025ZM161.355 69.3175C161.315 69.3175 161.28 69.3125 161.245 69.3075C157.96 68.7175 154.64 68.2175 151.375 67.8075C151.03 67.7625 150.785 67.4525 150.83 67.1075C150.875 66.7675 151.16 66.5375 151.53 66.5675C154.82 66.9775 158.16 67.4875 161.465 68.0775C161.8 68.1375 162.03 68.4625 161.97 68.8025C161.915 69.1025 161.65 69.3175 161.355 69.3175ZM92.025 72.3175C91.76 72.3175 91.515 72.1475 91.43 71.8775C91.325 71.5475 91.51 71.1975 91.84 71.0975C95.005 70.0975 98.265 69.2075 101.535 68.4425C101.865 68.3625 102.21 68.5725 102.285 68.9075C102.365 69.2425 102.155 69.5775 101.82 69.6575C98.58 70.4175 95.345 71.3025 92.215 72.2875C92.15 72.3075 92.09 72.3175 92.025 72.3175ZM180.895 73.6975C180.84 73.6975 180.785 73.6925 180.73 73.6775C177.48 72.7975 174.22 71.9925 171.035 71.2775C170.695 71.2025 170.485 70.8675 170.56 70.5275C170.635 70.1925 170.95 69.9775 171.305 70.0575C174.51 70.7775 177.79 71.5875 181.06 72.4675C181.39 72.5625 181.59 72.9025 181.495 73.2375C181.42 73.5125 181.17 73.6975 180.895 73.6975ZM200.03 79.6475C199.96 79.6475 199.89 79.6375 199.82 79.6125C196.69 78.5075 193.495 77.4525 190.335 76.4675C190.005 76.3625 189.82 76.0125 189.925 75.6875C190.025 75.3575 190.38 75.1675 190.705 75.2775C193.88 76.2625 197.09 77.3275 200.235 78.4325C200.56 78.5475 200.735 78.9075 200.62 79.2325C200.53 79.4875 200.29 79.6475 200.03 79.6475ZM73.51 79.8425C73.285 79.8425 73.065 79.7175 72.955 79.4975C72.8 79.1925 72.92 78.8175 73.23 78.6575C76.175 77.1575 79.255 75.7525 82.38 74.4875C82.69 74.3475 83.06 74.5125 83.19 74.8325C83.32 75.1525 83.165 75.5175 82.845 75.6475C79.755 76.8975 76.71 78.2875 73.795 79.7725C73.705 79.8175 73.605 79.8425 73.51 79.8425ZM218.71 86.8925C218.63 86.8925 218.55 86.8775 218.465 86.8425C215.405 85.5425 212.29 84.2725 209.2 83.0775C208.88 82.9525 208.72 82.5875 208.845 82.2675C208.975 81.9475 209.335 81.7975 209.655 81.9125C212.755 83.1125 215.885 84.3875 218.955 85.6925C219.275 85.8275 219.42 86.1925 219.29 86.5125C219.185 86.7475 218.955 86.8925 218.71 86.8925ZM56.61 90.4975C56.42 90.4975 56.24 90.4175 56.115 90.2575C55.905 89.9825 55.955 89.5875 56.23 89.3775C58.855 87.3575 61.63 85.4175 64.475 83.6225C64.77 83.4425 65.155 83.5275 65.34 83.8175C65.525 84.1125 65.435 84.4975 65.145 84.6775C62.33 86.4575 59.59 88.3725 56.99 90.3725C56.88 90.4575 56.745 90.4975 56.61 90.4975ZM236.92 95.2525C236.83 95.2525 236.735 95.2325 236.645 95.1875C233.635 93.7025 230.6 92.2575 227.615 90.8875C227.305 90.7425 227.165 90.3675 227.31 90.0575C227.455 89.7425 227.825 89.6025 228.14 89.7475C231.13 91.1225 234.18 92.5775 237.2 94.0625C237.51 94.2175 237.635 94.5925 237.485 94.9025C237.375 95.1225 237.15 95.2525 236.92 95.2525ZM42.005 104.132C41.855 104.132 41.71 104.083 41.59 103.972C41.33 103.748 41.31 103.353 41.54 103.092C43.755 100.597 46.115 98.1725 48.56 95.8925C48.81 95.6525 49.205 95.6675 49.44 95.9175C49.68 96.1725 49.665 96.5675 49.41 96.8025C47 99.0625 44.665 101.458 42.47 103.923C42.35 104.062 42.18 104.132 42.005 104.132ZM254.655 104.582C254.55 104.582 254.45 104.557 254.35 104.502C251.445 102.877 248.485 101.272 245.56 99.7325C245.255 99.5725 245.135 99.1925 245.295 98.8875C245.46 98.5825 245.84 98.4625 246.14 98.6225C249.08 100.172 252.045 101.782 254.96 103.412C255.26 103.582 255.37 103.962 255.2 104.262C255.085 104.467 254.875 104.582 254.655 104.582ZM271.905 114.792C271.795 114.792 271.68 114.762 271.575 114.697C268.725 112.917 265.85 111.172 263.03 109.502C262.73 109.327 262.63 108.942 262.81 108.647C262.98 108.342 263.365 108.247 263.665 108.427C266.49 110.097 269.38 111.852 272.24 113.637C272.53 113.822 272.62 114.207 272.435 114.502C272.32 114.687 272.115 114.792 271.905 114.792ZM30.12 120.212C30.005 120.212 29.895 120.182 29.79 120.118C29.5 119.938 29.405 119.552 29.585 119.257C31.345 116.392 33.24 113.583 35.205 110.912C35.415 110.638 35.805 110.583 36.08 110.782C36.36 110.987 36.415 111.377 36.21 111.653C34.265 114.298 32.395 117.072 30.65 119.912C30.535 120.107 30.33 120.212 30.12 120.212ZM288.655 125.802C288.53 125.802 288.405 125.762 288.3 125.692C285.53 123.777 282.735 121.897 280 120.097C279.71 119.907 279.63 119.522 279.82 119.232C280.01 118.952 280.395 118.867 280.685 119.052C283.43 120.857 286.23 122.742 289.005 124.657C289.295 124.857 289.365 125.247 289.17 125.527C289.045 125.702 288.85 125.802 288.655 125.802ZM304.86 137.527C304.73 137.527 304.6 137.487 304.485 137.402C301.805 135.377 299.105 133.372 296.455 131.452C296.175 131.247 296.115 130.857 296.315 130.582C296.52 130.298 296.91 130.237 297.19 130.442C299.845 132.362 302.555 134.372 305.24 136.408C305.515 136.612 305.565 137.007 305.36 137.283C305.235 137.442 305.05 137.527 304.86 137.527ZM21.015 138.022C20.935 138.022 20.855 138.007 20.775 137.978C20.455 137.842 20.305 137.472 20.44 137.158C21.75 134.037 23.175 130.967 24.67 128.037C24.825 127.728 25.2 127.603 25.51 127.763C25.82 127.917 25.94 128.298 25.785 128.603C24.3 131.512 22.89 134.552 21.59 137.643C21.49 137.882 21.26 138.022 21.015 138.022ZM320.565 149.987C320.425 149.987 320.285 149.942 320.165 149.847C317.645 147.752 315.03 145.627 312.39 143.533C312.12 143.317 312.075 142.927 312.29 142.658C312.51 142.387 312.9 142.347 313.165 142.552C315.815 144.652 318.44 146.783 320.965 148.882C321.23 149.103 321.27 149.497 321.05 149.762C320.925 149.912 320.745 149.987 320.565 149.987ZM14.48 156.938C14.42 156.938 14.365 156.932 14.31 156.917C13.98 156.823 13.78 156.478 13.875 156.143C14.785 152.887 15.785 149.658 16.855 146.548C16.97 146.222 17.33 146.037 17.65 146.158C17.975 146.272 18.15 146.627 18.04 146.952C16.975 150.042 15.98 153.247 15.08 156.482C15.005 156.757 14.75 156.938 14.48 156.938ZM335.735 163.167C335.58 163.167 335.435 163.112 335.315 163.002C332.85 160.762 330.325 158.517 327.81 156.332C327.55 156.112 327.525 155.712 327.75 155.452C327.975 155.187 328.37 155.172 328.63 155.392C331.155 157.582 333.68 159.832 336.155 162.077C336.41 162.312 336.43 162.707 336.195 162.962C336.07 163.097 335.905 163.167 335.735 163.167ZM10.17 176.492C10.135 176.492 10.1 176.487 10.065 176.482C9.72501 176.427 9.49501 176.102 9.55501 175.762C10.11 172.437 10.75 169.122 11.455 165.902C11.53 165.567 11.86 165.357 12.2 165.422C12.535 165.497 12.75 165.832 12.675 166.167C11.975 169.367 11.34 172.667 10.785 175.967C10.735 176.272 10.47 176.492 10.17 176.492ZM350.25 176.987C350.09 176.987 349.93 176.927 349.81 176.802C347.445 174.447 345.03 172.097 342.64 169.822C342.39 169.582 342.38 169.187 342.62 168.937C342.855 168.692 343.255 168.677 343.5 168.917C345.9 171.202 348.32 173.557 350.69 175.917C350.935 176.162 350.935 176.557 350.69 176.802C350.57 176.927 350.41 176.987 350.25 176.987ZM364.09 191.478C363.92 191.478 363.755 191.408 363.63 191.272C361.385 188.808 359.09 186.342 356.805 183.952C356.57 183.708 356.58 183.308 356.825 183.073C357.08 182.838 357.47 182.838 357.71 183.092C360.005 185.488 362.305 187.958 364.555 190.433C364.79 190.688 364.77 191.083 364.51 191.312C364.395 191.423 364.245 191.478 364.09 191.478ZM7.75501 196.367C7.74001 196.367 7.72501 196.367 7.70501 196.367C7.36001 196.337 7.10501 196.037 7.13001 195.697C7.39501 192.327 7.73001 188.962 8.12501 185.702C8.16501 185.362 8.44501 185.132 8.82001 185.157C9.16501 185.197 9.40501 185.507 9.36501 185.852C8.97501 189.097 8.64001 192.442 8.37501 195.792C8.35501 196.117 8.08001 196.367 7.75501 196.367ZM377.19 206.642C377.01 206.642 376.83 206.562 376.705 206.412C374.625 203.872 372.46 201.297 370.265 198.757C370.04 198.497 370.07 198.102 370.335 197.877C370.595 197.647 370.99 197.682 371.215 197.942C373.415 200.487 375.59 203.072 377.675 205.622C377.895 205.887 377.855 206.282 377.585 206.502C377.47 206.597 377.33 206.642 377.19 206.642ZM6.94501 216.382C6.60001 216.378 6.32001 216.097 6.32001 215.753C6.33501 212.397 6.41001 209.022 6.54001 205.717C6.55501 205.378 6.82001 205.092 7.19001 205.117C7.53501 205.132 7.80501 205.423 7.79001 205.768C7.66001 209.057 7.58501 212.417 7.57001 215.757C7.57001 216.102 7.29001 216.382 6.94501 216.382ZM389.445 222.498C389.25 222.498 389.06 222.413 388.94 222.243C386.975 219.548 384.955 216.853 382.935 214.243C382.725 213.967 382.775 213.577 383.05 213.363C383.32 213.153 383.71 213.198 383.925 213.478C385.955 216.098 387.98 218.803 389.95 221.508C390.15 221.788 390.09 222.178 389.815 222.378C389.7 222.463 389.57 222.498 389.445 222.498ZM7.51001 236.412C7.18001 236.412 6.90501 236.152 6.88501 235.822C6.68501 232.432 6.53501 229.052 6.44501 225.792C6.43501 225.447 6.70501 225.157 7.05001 225.147H7.07001C7.40501 225.147 7.68501 225.417 7.69501 225.757C7.78501 229.007 7.93501 232.367 8.13501 235.747C8.15501 236.092 7.89001 236.387 7.54501 236.412H7.51001ZM400.72 239.057C400.515 239.057 400.31 238.957 400.19 238.767C398.43 235.992 396.58 233.182 394.695 230.417C394.505 230.132 394.575 229.742 394.86 229.548C395.14 229.352 395.535 229.427 395.73 229.712C397.62 232.487 399.48 235.312 401.245 238.097C401.43 238.392 401.345 238.777 401.055 238.962C400.95 239.027 400.835 239.057 400.72 239.057ZM410.84 256.347C410.62 256.347 410.405 256.227 410.29 256.018C408.73 253.117 407.085 250.188 405.395 247.302C405.225 247.007 405.325 246.627 405.62 246.447C405.91 246.268 406.3 246.372 406.475 246.673C408.17 249.567 409.825 252.512 411.39 255.427C411.555 255.727 411.44 256.112 411.135 256.272C411.045 256.322 410.94 256.347 410.84 256.347ZM9.27501 256.372C8.96001 256.372 8.69001 256.137 8.65501 255.818C8.26001 252.452 7.92001 249.088 7.63001 245.838C7.60001 245.493 7.85501 245.188 8.19501 245.158C8.60001 245.122 8.84501 245.383 8.87501 245.723C9.16001 248.967 9.50501 252.318 9.89501 255.678C9.93501 256.018 9.69001 256.327 9.34501 256.368C9.32001 256.372 9.30001 256.372 9.27501 256.372ZM419.585 274.363C419.345 274.363 419.115 274.223 419.01 273.988C417.69 270.943 416.285 267.888 414.84 264.913C414.69 264.603 414.82 264.228 415.13 264.077C415.435 263.923 415.81 264.053 415.965 264.363C417.42 267.363 418.83 270.428 420.16 273.488C420.295 273.808 420.15 274.173 419.835 274.312C419.755 274.342 419.67 274.363 419.585 274.363ZM12.09 276.212C11.79 276.212 11.525 275.992 11.475 275.688C10.91 272.342 10.395 269.007 9.94001 265.772C9.89001 265.432 10.13 265.113 10.47 265.068C10.79 265.012 11.125 265.253 11.175 265.598C11.63 268.822 12.145 272.147 12.705 275.482C12.765 275.822 12.535 276.143 12.195 276.202C12.16 276.208 12.125 276.212 12.09 276.212ZM426.645 293.092C426.38 293.092 426.135 292.927 426.05 292.662C425.055 289.552 423.95 286.387 422.76 283.242C422.64 282.917 422.8 282.557 423.125 282.438C423.445 282.298 423.805 282.473 423.93 282.798C425.13 285.962 426.24 289.152 427.24 292.277C427.345 292.607 427.165 292.962 426.835 293.067C426.77 293.087 426.705 293.092 426.645 293.092ZM15.865 295.887C15.575 295.887 15.32 295.688 15.255 295.393C14.555 292.152 13.88 288.842 13.255 285.562C13.185 285.223 13.41 284.897 13.75 284.833C14.08 284.742 14.415 284.988 14.48 285.327C15.105 288.598 15.775 291.897 16.475 295.132C16.55 295.467 16.335 295.803 15.995 295.872C15.955 295.882 15.91 295.887 15.865 295.887ZM431.645 312.467C431.355 312.467 431.09 312.258 431.035 311.958C430.415 308.773 429.675 305.503 428.83 302.238C428.745 301.903 428.945 301.562 429.28 301.478C429.605 301.393 429.95 301.592 430.04 301.928C430.89 305.213 431.64 308.508 432.26 311.723C432.325 312.058 432.105 312.387 431.765 312.452C431.725 312.463 431.685 312.467 431.645 312.467ZM20.52 315.372C20.24 315.372 19.99 315.182 19.915 314.902C19.07 311.673 18.255 308.427 17.48 305.177C17.4 304.837 17.605 304.502 17.94 304.423C18.27 304.342 18.615 304.548 18.695 304.882C19.475 308.127 20.28 311.362 21.125 314.587C21.21 314.923 21.015 315.262 20.68 315.352C20.625 315.362 20.57 315.372 20.52 315.372ZM434.12 332.307C433.79 332.307 433.515 332.048 433.495 331.712C433.325 328.448 433.03 325.108 432.61 321.793C432.565 321.453 432.81 321.138 433.15 321.098C433.525 321.068 433.805 321.298 433.85 321.638C434.27 324.983 434.575 328.353 434.745 331.647C434.765 331.992 434.5 332.288 434.155 332.307H434.12ZM26.145 335.107C25.88 335.107 25.635 334.938 25.55 334.668L25.4 334.182C24.425 331.008 23.465 327.772 22.56 324.573C22.465 324.242 22.655 323.897 22.99 323.802C23.335 323.712 23.67 323.902 23.76 324.232C24.67 327.422 25.625 330.652 26.6 333.823L26.74 334.297C26.845 334.628 26.66 334.973 26.33 335.077C26.27 335.098 26.205 335.107 26.145 335.107ZM433.795 352.307C433.78 352.307 433.77 352.307 433.755 352.307C433.41 352.283 433.15 351.983 433.175 351.638C433.405 348.367 433.565 345.018 433.64 341.677C433.645 341.333 433.89 341.083 434.28 341.068C434.62 341.073 434.895 341.358 434.89 341.708C434.815 345.068 434.655 348.438 434.42 351.728C434.4 352.057 434.12 352.307 433.795 352.307ZM32.34 354.147C32.085 354.147 31.84 353.987 31.75 353.727C30.67 350.572 29.61 347.402 28.575 344.222C28.47 343.897 28.65 343.542 28.98 343.438C29.31 343.332 29.66 343.512 29.765 343.837C30.8 347.007 31.855 350.172 32.935 353.322C33.045 353.647 32.87 354.002 32.545 354.117C32.475 354.137 32.41 354.147 32.34 354.147ZM431.34 372.158C431.305 372.158 431.27 372.152 431.23 372.147C430.89 372.083 430.665 371.758 430.725 371.423C431.3 368.203 431.8 364.888 432.215 361.562C432.255 361.217 432.585 360.973 432.91 361.018C433.255 361.062 433.495 361.372 433.455 361.717C433.04 365.068 432.535 368.402 431.955 371.638C431.9 371.943 431.64 372.158 431.34 372.158ZM39.115 372.967C38.865 372.967 38.625 372.812 38.535 372.562C37.355 369.447 36.2 366.317 35.065 363.177C34.945 362.852 35.115 362.492 35.44 362.372C35.77 362.262 36.12 362.427 36.24 362.752C37.37 365.887 38.525 369.012 39.7 372.117C39.82 372.442 39.66 372.802 39.34 372.922C39.265 372.952 39.19 372.967 39.115 372.967ZM46.515 391.587C46.27 391.587 46.04 391.443 45.94 391.202C44.655 388.128 43.4 385.033 42.16 381.913C42.03 381.592 42.19 381.228 42.51 381.103C42.82 380.978 43.19 381.128 43.32 381.448C44.555 384.562 45.815 387.652 47.09 390.723C47.225 391.043 47.075 391.408 46.755 391.538C46.675 391.573 46.595 391.587 46.515 391.587ZM426.695 391.603C426.64 391.603 426.58 391.598 426.515 391.578C426.185 391.478 426 391.128 426.1 390.798C427.05 387.638 427.925 384.397 428.69 381.177C428.775 380.842 429.095 380.638 429.445 380.712C429.78 380.797 429.99 381.133 429.91 381.467C429.135 384.712 428.255 387.973 427.295 391.158C427.215 391.427 426.965 391.603 426.695 391.603ZM54.535 409.952C54.3 409.952 54.075 409.818 53.97 409.587C52.585 406.562 51.215 403.508 49.87 400.432C49.735 400.117 49.88 399.747 50.195 399.607C50.51 399.477 50.88 399.612 51.02 399.932C52.36 403.003 53.72 406.047 55.105 409.068C55.25 409.383 55.11 409.753 54.8 409.897C54.715 409.938 54.625 409.952 54.535 409.952ZM419.785 410.368C419.7 410.368 419.615 410.353 419.53 410.312C419.215 410.178 419.075 409.808 419.21 409.493C420.54 406.473 421.79 403.363 422.94 400.248C423.06 399.928 423.415 399.758 423.745 399.878C424.065 399.998 424.23 400.358 424.11 400.683C422.955 403.823 421.69 406.953 420.355 409.993C420.25 410.228 420.025 410.368 419.785 410.368ZM63.22 428.008C62.99 428.008 62.77 427.883 62.66 427.668C61.165 424.698 59.685 421.698 58.225 418.668C58.075 418.358 58.205 417.983 58.52 417.832C58.84 417.688 59.205 417.812 59.355 418.122C60.81 421.142 62.28 424.138 63.775 427.103C63.93 427.413 63.81 427.788 63.5 427.943C63.41 427.987 63.315 428.008 63.22 428.008ZM410.645 428.167C410.535 428.167 410.425 428.142 410.325 428.082C410.025 427.902 409.93 427.522 410.105 427.227C411.8 424.362 413.425 421.422 414.93 418.482C415.09 418.172 415.46 418.052 415.77 418.212C416.08 418.372 416.2 418.747 416.045 419.052C414.525 422.012 412.89 424.977 411.18 427.862C411.065 428.057 410.855 428.167 410.645 428.167ZM399.485 444.767C399.355 444.767 399.22 444.727 399.105 444.642C398.835 444.438 398.78 444.042 398.985 443.767C400.99 441.117 402.94 438.392 404.78 435.658C404.975 435.372 405.36 435.292 405.65 435.487C405.935 435.682 406.01 436.072 405.815 436.357C403.965 439.112 402.005 441.857 399.985 444.522C399.86 444.682 399.675 444.767 399.485 444.767ZM72.605 445.712C72.385 445.712 72.175 445.598 72.06 445.393C70.465 442.533 68.855 439.568 67.27 436.578C67.11 436.272 67.22 435.893 67.525 435.733C67.835 435.582 68.21 435.688 68.37 435.992C69.955 438.973 71.56 441.932 73.15 444.783C73.32 445.082 73.21 445.467 72.91 445.633C72.815 445.688 72.71 445.712 72.605 445.712ZM386.595 460.057C386.445 460.057 386.29 460.003 386.17 459.888C385.92 459.658 385.905 459.258 386.14 459.008C388.42 456.562 390.65 454.048 392.765 451.543C392.99 451.288 393.385 451.247 393.645 451.467C393.91 451.693 393.945 452.087 393.72 452.353C391.59 454.872 389.35 457.397 387.055 459.863C386.93 459.992 386.765 460.057 386.595 460.057ZM82.755 462.988C82.55 462.988 82.345 462.883 82.225 462.693C80.49 459.888 78.745 456.997 77.04 454.103C76.87 453.803 76.965 453.418 77.265 453.243C77.56 453.068 77.945 453.173 78.12 453.467C79.82 456.358 81.555 459.238 83.29 462.033C83.47 462.328 83.38 462.713 83.085 462.893C82.985 462.958 82.87 462.988 82.755 462.988ZM372.29 474.052C372.115 474.052 371.945 473.982 371.82 473.842C371.59 473.587 371.615 473.192 371.87 472.962C374.38 470.712 376.83 468.422 379.165 466.142C379.41 465.902 379.81 465.912 380.045 466.152C380.29 466.402 380.285 466.797 380.035 467.037C377.69 469.327 375.225 471.632 372.705 473.892C372.585 473.997 372.435 474.052 372.29 474.052ZM93.755 479.738C93.555 479.738 93.36 479.643 93.24 479.467C91.35 476.753 89.46 473.953 87.625 471.147C87.43 470.863 87.515 470.473 87.805 470.283C88.09 470.098 88.475 470.178 88.67 470.467C90.5 473.263 92.385 476.048 94.265 478.753C94.465 479.038 94.395 479.428 94.11 479.622C94 479.698 93.88 479.738 93.755 479.738ZM356.86 486.817C356.67 486.817 356.485 486.732 356.365 486.572C356.155 486.297 356.205 485.908 356.48 485.697C359.135 483.658 361.77 481.567 364.3 479.477C364.565 479.253 364.955 479.292 365.175 479.557C365.395 479.827 365.36 480.217 365.095 480.438C362.55 482.542 359.91 484.642 357.24 486.688C357.125 486.777 356.99 486.817 356.86 486.817ZM105.69 495.823C105.51 495.823 105.325 495.742 105.2 495.587C103.18 493.033 101.125 490.353 99.09 487.617C98.885 487.342 98.945 486.948 99.22 486.742C99.5 486.543 99.89 486.598 100.1 486.872C102.12 489.598 104.165 492.267 106.18 494.807C106.395 495.077 106.35 495.473 106.08 495.688C105.965 495.777 105.83 495.823 105.69 495.823ZM340.575 498.473C340.375 498.473 340.18 498.372 340.055 498.193C339.865 497.908 339.94 497.518 340.23 497.328C343.01 495.463 345.775 493.548 348.45 491.638C348.725 491.433 349.12 491.503 349.32 491.783C349.52 492.062 349.46 492.458 349.18 492.658C346.495 494.573 343.72 496.493 340.925 498.368C340.82 498.438 340.695 498.473 340.575 498.473ZM323.64 509.163C323.425 509.163 323.22 509.052 323.1 508.857C322.925 508.562 323.02 508.177 323.32 507.997C326.23 506.262 329.1 504.507 331.845 502.772C332.14 502.598 332.525 502.677 332.71 502.967C332.89 503.262 332.805 503.647 332.515 503.832C329.755 505.568 326.88 507.332 323.96 509.072C323.86 509.132 323.75 509.163 323.64 509.163ZM118.7 511.052C118.535 511.052 118.365 510.982 118.245 510.852C116.02 508.447 113.775 505.917 111.575 503.342C111.355 503.082 111.38 502.682 111.645 502.462C111.91 502.242 112.305 502.267 112.525 502.533C114.715 505.098 116.95 507.607 119.16 510.003C119.395 510.258 119.38 510.652 119.125 510.887C119.005 510.997 118.855 511.052 118.7 511.052ZM306.205 519.033C305.98 519.033 305.765 518.912 305.655 518.707C305.49 518.402 305.605 518.022 305.905 517.857C308.855 516.267 311.775 514.658 314.665 513.022C314.965 512.852 315.345 512.957 315.52 513.257C315.685 513.557 315.58 513.938 315.28 514.112C312.385 515.747 309.455 517.362 306.5 518.957C306.405 519.007 306.305 519.033 306.205 519.033ZM132.94 525.133C132.79 525.133 132.64 525.077 132.525 524.973C130.07 522.772 127.61 520.452 125.22 518.077C124.97 517.832 124.97 517.438 125.215 517.193C125.455 516.948 125.85 516.948 126.095 517.188C128.475 519.552 130.92 521.853 133.36 524.043C133.615 524.272 133.635 524.668 133.405 524.927C133.28 525.062 133.11 525.133 132.94 525.133ZM288.405 528.217C288.175 528.217 287.95 528.092 287.845 527.872C287.69 527.562 287.82 527.182 288.125 527.033C291.125 525.542 294.105 524.042 297.06 522.517C297.36 522.362 297.735 522.482 297.9 522.787C298.055 523.092 297.94 523.473 297.63 523.632C294.67 525.158 291.69 526.662 288.68 528.152C288.59 528.197 288.495 528.217 288.405 528.217ZM270.32 536.853C270.085 536.853 269.86 536.717 269.755 536.488C269.61 536.178 269.745 535.803 270.06 535.663C273.095 534.258 276.12 532.837 279.12 531.408C279.425 531.268 279.81 531.393 279.955 531.703C280.105 532.013 279.97 532.388 279.66 532.538C276.65 533.973 273.625 535.388 270.58 536.793C270.5 536.833 270.41 536.853 270.32 536.853ZM148.575 537.628C148.455 537.628 148.33 537.587 148.22 537.512C145.545 535.632 142.84 533.602 140.185 531.472C139.915 531.257 139.87 530.862 140.085 530.592C140.31 530.327 140.7 530.283 140.965 530.497C143.6 532.607 146.28 534.628 148.935 536.487C149.22 536.688 149.29 537.077 149.09 537.362C148.97 537.533 148.775 537.628 148.575 537.628ZM252.08 545.028C251.84 545.028 251.61 544.888 251.505 544.653C251.37 544.338 251.515 543.968 251.83 543.828C254.89 542.493 257.94 541.148 260.97 539.788C261.285 539.648 261.655 539.788 261.795 540.103C261.935 540.418 261.795 540.788 261.485 540.928C258.445 542.288 255.395 543.638 252.33 544.973C252.25 545.008 252.165 545.028 252.08 545.028ZM165.755 547.872C165.66 547.872 165.565 547.853 165.475 547.807C162.54 546.363 159.57 544.747 156.645 542.993C156.35 542.818 156.255 542.432 156.43 542.138C156.605 541.842 156.99 541.743 157.29 541.923C160.185 543.652 163.125 545.258 166.03 546.688C166.34 546.842 166.465 547.213 166.315 547.523C166.205 547.747 165.98 547.872 165.755 547.872ZM233.615 552.783C233.36 552.783 233.12 552.622 233.03 552.367C232.91 552.043 233.08 551.682 233.405 551.568C234.855 551.043 236.34 550.462 237.82 549.837C239.425 549.158 241.035 548.478 242.64 547.793C242.955 547.663 243.325 547.802 243.46 548.117C243.595 548.438 243.45 548.807 243.135 548.938C241.525 549.628 239.915 550.312 238.305 550.992C236.805 551.622 235.3 552.212 233.83 552.742C233.76 552.768 233.685 552.783 233.615 552.783ZM184.43 554.938C184.38 554.938 184.325 554.927 184.275 554.917C181.1 554.077 177.88 553.037 174.7 551.827C174.375 551.707 174.21 551.342 174.335 551.022C174.46 550.697 174.82 550.537 175.14 550.662C178.285 551.852 181.465 552.882 184.59 553.707C184.925 553.797 185.125 554.137 185.035 554.467C184.96 554.753 184.71 554.938 184.43 554.938ZM214.16 557.318C213.84 557.318 213.57 557.077 213.535 556.758C213.5 556.413 213.75 556.107 214.09 556.068C217.355 555.723 220.65 555.163 223.88 554.402C224.23 554.318 224.555 554.538 224.63 554.867C224.715 555.202 224.505 555.543 224.17 555.617C220.885 556.392 217.54 556.957 214.225 557.312C214.2 557.318 214.18 557.318 214.16 557.318ZM204.16 557.747H204.15C200.835 557.683 197.465 557.402 194.125 556.923C193.785 556.872 193.55 556.558 193.6 556.217C193.645 555.872 193.93 555.628 194.305 555.688C197.59 556.163 200.91 556.433 204.175 556.497C204.515 556.508 204.795 556.793 204.785 557.138C204.78 557.478 204.5 557.747 204.16 557.747Z" fill="#D8D5DB"/>
<mask id="mask1" mask-type="alpha" maskUnits="userSpaceOnUse" x="46" y="82" width="365" height="492">
<path fill-rule="evenodd" clip-rule="evenodd" d="M46.75 82.1295H410.438V573.31H46.75V82.1295Z" fill="white"/>
</mask>
<g mask="url(#mask1)">
<path fill-rule="evenodd" clip-rule="evenodd" d="M385.55 494.679C382.75 495.429 379.95 496.879 377.7 499.429C376.4 500.929 374.7 503.729 373.2 506.679C372.85 496.579 372.5 487.979 372.15 482.679C373.1 482.579 373.65 482.579 373.65 482.579C373.65 481.379 373.65 480.18 373.6 478.879C373.35 454.529 370.7 412.18 367.2 369.979C368.45 372.579 369.65 374.979 370.8 377.129C370.85 377.879 370.85 378.629 371 379.43C372.85 389.529 382.1 445.43 384.8 479.129C385.3 485.18 385.55 490.479 385.55 494.679ZM407.8 371.479V371.379C404.9 361.929 395.15 333.779 384.05 305.829L396.35 301.629C396.35 301.629 360.35 237.579 339.3 223.479C339.25 223.429 339.2 223.429 339.15 223.379C331.75 216.479 320.95 211.979 304.8 210.129C304.7 196.779 305.7 174.279 306.85 157.029C315.15 155.129 319.15 145.379 319.7 143.229C320.85 138.829 319.8 135.179 317.65 132.829C318.3 127.379 319.4 116.779 319.1 107.679C318.85 99.3295 317.5 92.2795 313.6 91.4295C313.65 91.2795 313.75 91.1795 313.8 91.0795C315.1 86.9295 312.65 82.3295 312.55 82.1295L310.35 83.3295C310.95 84.3795 312.2 87.6795 311.4 90.2795C307.7 86.1795 296.2 84.5295 283.3 84.7795C265.25 85.0795 244.55 89.2295 238.95 95.7295C235.05 100.229 236.2 102.679 240.25 103.779C239.65 107.979 239.4 111.629 239.3 114.979C238.7 116.529 238.15 118.129 237.6 119.829C236.15 120.829 234.75 122.279 233.7 124.529L236 125.579C236.05 125.479 236.1 125.429 236.15 125.329C235.55 127.879 235 130.479 234.6 133.329C230.1 164.329 222.75 195.179 253.5 195.529C253.45 199.029 253.25 202.429 252.9 205.629C252.65 208.179 252.3 210.579 251.85 212.729C240.15 215.579 231 220.079 224.65 226.129C202.05 244.779 173.5 304.679 173.5 304.679L183.1 309.429C176 323.229 169 337.329 163.75 348.779C139.45 331.979 96.75 300.829 84.15 287.179C84.15 287.129 84.1 287.129 84.05 287.079C84.55 281.829 83.6 273.329 82.2 268.529C82.2 268.429 82.2 268.329 82.15 268.179C82.05 267.929 81.95 267.779 81.9 267.579C81.8 267.279 81.7 266.929 81.6 266.679C81.35 266.029 81.15 265.579 80.95 265.179C77.6 257.779 72.3 254.879 69.15 245.029C67.5 239.779 63.45 241.929 61.9 245.429L50 218.829L46.75 220.279L62.05 254.629C58.45 253.029 55.3 252.079 53.15 252.829C50.2 253.829 46.95 268.679 48.35 273.979C49.75 279.229 64.1 296.129 69.45 299.029C69.85 299.229 70.3 299.379 70.7 299.429C79.35 311.529 136.7 379.629 159.75 391.429C174.05 398.679 184.8 392.429 188.35 383.129C192.95 375.729 201.4 361.28 210.6 344.579C207.6 391.079 201.85 443.479 191 480.229C192 480.379 193.05 480.529 194.1 480.679C191.05 495.929 188.8 515.979 187.2 536.329C198.5 541.129 210 545.479 221.6 549.379C273.35 566.879 327.05 575.629 373.75 572.779C374.5 570.479 374.85 568.079 374.8 565.529C374.55 555.529 374.25 543.279 373.95 531.179C376.45 537.679 379.7 543.029 382.3 544.379C385.05 545.779 398.05 537.829 400.9 533.079C403.7 528.479 405.85 506.379 404.2 500.479C404.1 500.079 403.8 499.779 403.6 499.429C404.2 496.129 405.1 488.929 406.1 479.529C409.3 447.829 413.1 390.879 407.8 371.479Z" fill="#D1CDD3"/>
</g>
<path fill-rule="evenodd" clip-rule="evenodd" d="M280.106 275.57L247.511 254.301C247.511 254.301 215.116 313.915 199.141 348.796C174.856 331.98 132.156 300.846 119.551 287.166C119.516 287.131 119.481 287.111 119.446 287.076C119.941 281.815 118.991 273.34 117.606 268.535C117.576 268.41 117.571 268.311 117.526 268.176C117.456 267.951 117.361 267.771 117.286 267.556C117.186 267.275 117.096 266.92 116.996 266.681C116.731 266.035 116.526 265.566 116.341 265.16C112.991 257.806 107.681 254.866 104.551 245.046C102.371 238.191 96.086 243.941 96.706 248.886C96.706 248.886 97.641 252.095 98.696 255.186C94.541 253.205 90.951 252.006 88.531 252.821C85.601 253.806 82.326 268.676 83.731 273.991C85.111 279.221 99.481 296.131 104.861 299.041C105.251 299.25 105.661 299.366 106.081 299.431C114.756 311.546 172.106 379.651 195.161 391.411C209.441 398.696 220.166 392.421 223.751 383.141C234.651 365.446 267.636 307.855 280.106 275.57Z" fill="#FFAD69"/>
<path fill-rule="evenodd" clip-rule="evenodd" d="M284.542 238.945C289.482 263.795 269.622 334.51 269.622 334.51L208.872 304.695C208.872 304.695 271.512 173.39 284.542 238.945Z" fill="#EA3939"/>
<path fill-rule="evenodd" clip-rule="evenodd" d="M410.201 565.529C410.201 566.329 410.201 567.129 410.101 567.929C398.651 570.429 386.451 572.079 373.751 572.779C327.051 575.629 273.351 566.879 221.601 549.379C223.401 522.679 226.201 494.829 230.501 476.029L373.601 478.879L384.801 479.129L406.101 479.529L407.351 479.579C408.351 490.979 409.551 537.129 410.201 565.529Z" fill="#232323"/>
<path fill-rule="evenodd" clip-rule="evenodd" d="M328.468 209.297C367.738 210.592 381.013 223.847 387.783 246.772C395.468 272.802 409.008 430.022 409.008 482.557C409.008 482.557 291.488 490.882 226.383 480.212C246.793 411.262 249.003 287.277 249.413 250.342C249.718 222.627 278.683 207.652 328.468 209.297Z" fill="#FF4E4A"/>
<path fill-rule="evenodd" clip-rule="evenodd" d="M293.873 145.007C290.003 142.097 269.823 144.737 275.638 103.652C277.753 88.662 291.833 98.667 301.798 100.667C311.763 102.667 305.428 145.747 305.428 145.747L293.873 145.007Z" fill="#232323"/>
<path fill-rule="evenodd" clip-rule="evenodd" d="M344.117 135.165C342.442 146.055 339.092 204.975 340.487 218.655C341.882 232.34 275.702 236.25 284.357 221.17C293.017 206.09 286.872 156.105 286.872 156.105L344.117 135.165Z" fill="#FFAD69"/>
<path fill-rule="evenodd" clip-rule="evenodd" d="M339.535 136.831L286.88 156.111C286.88 156.111 290.435 185.226 288.29 205.721C328.44 202.616 338.745 151.906 339.425 142.141C339.535 140.301 339.59 138.526 339.535 136.831Z" fill="#D88344"/>
<path fill-rule="evenodd" clip-rule="evenodd" d="M269.974 133.312C265.094 166.947 256.809 200.482 297.579 194.962C338.354 189.442 344.689 137.167 344.569 127.307C343.934 74.6925 279.569 67.1725 269.974 133.312Z" fill="#FFAD69"/>
<path fill-rule="evenodd" clip-rule="evenodd" d="M348.965 91.4105C349.015 91.2805 349.125 91.1905 349.17 91.0605C350.495 86.9355 348.055 82.3405 347.95 82.1455L345.75 83.3305C345.77 83.3705 347.77 87.1755 346.79 90.2705C337.86 80.4055 283.915 84.6105 274.32 95.7555C262.13 109.916 299.62 103.531 320.745 99.9555C323.705 112.326 337.115 132.811 340.98 135.721L352.535 136.466C352.535 136.466 358.84 93.5805 348.965 91.4105Z" fill="#232323"/>
<path fill-rule="evenodd" clip-rule="evenodd" d="M438.988 499.413C441.578 485.023 450.108 396.629 443.203 371.499C443.193 371.459 443.198 371.419 443.188 371.374C438.368 355.644 414.433 287.839 397.103 255.734L359.758 266.694C359.758 266.694 391.013 348.264 406.168 377.114C406.213 377.889 406.213 378.648 406.363 379.449C408.593 391.348 421.053 466.854 420.913 494.663C418.153 495.434 415.343 496.883 413.108 499.434C410.263 502.684 405.303 512.018 405.653 516.158C406.648 527.973 413.213 542.049 417.708 544.374C420.458 545.794 433.418 537.808 436.263 533.104C439.063 528.473 441.223 506.389 439.573 500.499C439.463 500.094 439.193 499.768 438.988 499.413Z" fill="#FFAD69"/>
<path fill-rule="evenodd" clip-rule="evenodd" d="M374.689 223.486C395.754 237.566 431.714 301.611 431.714 301.611L367.679 323.486C367.679 323.486 319.119 186.346 374.689 223.486Z" fill="#FF4E4A"/>
<path fill-rule="evenodd" clip-rule="evenodd" d="M304.308 131.647C304.438 133.287 303.553 134.692 302.323 134.792C301.093 134.887 299.993 133.642 299.863 132.002C299.728 130.367 300.618 128.957 301.848 128.862C303.073 128.762 304.173 130.007 304.308 131.647Z" fill="#232323"/>
<path fill-rule="evenodd" clip-rule="evenodd" d="M278.336 132.336C278.466 133.976 277.581 135.381 276.351 135.481C275.126 135.576 274.021 134.331 273.891 132.696C273.756 131.056 274.646 129.646 275.876 129.551C277.101 129.451 278.206 130.696 278.336 132.336Z" fill="#232323"/>
<path fill-rule="evenodd" clip-rule="evenodd" d="M310.694 122.446C307.219 117.111 301.239 118.381 301.179 118.391L300.629 115.951C300.944 115.886 308.374 114.311 312.789 121.081L310.694 122.446Z" fill="#232323"/>
<path fill-rule="evenodd" clip-rule="evenodd" d="M271.38 125.561L269.11 124.521C272.48 117.166 280.055 117.641 280.375 117.656L280.2 120.151C279.965 120.136 274.02 119.821 271.38 125.561Z" fill="#232323"/>
<path fill-rule="evenodd" clip-rule="evenodd" d="M295.96 162.617C294.3 162.617 293.25 162.432 293.21 162.422L293.665 159.967C294.125 160.052 305.1 161.912 311.215 151.737L313.355 153.027C308.31 161.417 300.185 162.617 295.96 162.617Z" fill="#232323"/>
<path fill-rule="evenodd" clip-rule="evenodd" d="M276.739 151.222L283.099 129.542L285.494 130.242L280.089 148.677L288.844 148.562L288.879 151.062L276.739 151.222Z" fill="#D88344"/>
<path fill-rule="evenodd" clip-rule="evenodd" d="M114.761 284.682L111.491 286.142L82.1415 220.287L85.4065 218.827L114.761 284.682Z" fill="#232323"/>
<path fill-rule="evenodd" clip-rule="evenodd" d="M334.23 139.446C330.545 147.746 325.935 155.776 337.5 157.266C349.065 158.761 354.444 145.776 355.1 143.231C358.595 129.661 341.47 123.126 334.23 139.446Z" fill="#FFAD69"/>
<path fill-rule="evenodd" clip-rule="evenodd" d="M161.226 0.00201416H43.5715C39.4715 0.00201416 36.1465 3.32201 36.1465 7.42201V49.317C36.1465 53.417 39.4715 56.742 43.5715 56.742H50.7365L58.8165 67.537C60.6115 69.937 64.3765 69.222 65.1715 66.332L67.7915 56.742H161.226C165.326 56.742 168.646 53.417 168.646 49.317V7.42201C168.646 3.32201 165.326 0.00201416 161.226 0.00201416Z" fill="#4D8DFF"/>
<mask id="mask2" mask-type="alpha" maskUnits="userSpaceOnUse" x="0" y="0" width="520" height="574">
<path fill-rule="evenodd" clip-rule="evenodd" d="M0 573.31H519.785V0H0V573.31Z" fill="white"/>
</mask>
<g mask="url(#mask2)">
<path fill-rule="evenodd" clip-rule="evenodd" d="M47.705 13.495H151.73V10.995H47.705V13.495Z" fill="white"/>
<path fill-rule="evenodd" clip-rule="evenodd" d="M47.705 25.325H116.395V22.825H47.705V25.325Z" fill="white"/>
<path fill-rule="evenodd" clip-rule="evenodd" d="M47.705 37.155H133.565V34.655H47.705V37.155Z" fill="white"/>
<path fill-rule="evenodd" clip-rule="evenodd" d="M133.566 140.193H43.5705C39.4705 140.193 36.1505 143.518 36.1505 147.613V189.508C36.1505 193.608 39.4705 196.933 43.5705 196.933H50.7355L58.8155 207.728C60.6105 210.128 64.3805 209.413 65.1705 206.523L67.7905 196.933H133.566C137.666 196.933 140.986 193.608 140.986 189.508V147.613C140.986 143.518 137.666 140.193 133.566 140.193Z" fill="#FF4E4A"/>
<path fill-rule="evenodd" clip-rule="evenodd" d="M47.705 153.685H95.59V151.185H47.705V153.685Z" fill="white"/>
<path fill-rule="evenodd" clip-rule="evenodd" d="M105.5 153.685H122.01V151.185H105.5V153.685Z" fill="white"/>
<path fill-rule="evenodd" clip-rule="evenodd" d="M47.705 165.515H81.72V163.015H47.705V165.515Z" fill="white"/>
<path fill-rule="evenodd" clip-rule="evenodd" d="M47.705 177.345H113.42V174.845H47.705V177.345Z" fill="white"/>
<path fill-rule="evenodd" clip-rule="evenodd" d="M103.429 70.058H212.999C217.094 70.058 220.414 73.383 220.414 77.478V119.378C220.414 123.473 217.094 126.798 212.999 126.798H205.829L197.749 137.598C195.954 139.993 192.184 139.278 191.399 136.388L188.774 126.798H103.429C99.3285 126.798 96.0085 123.473 96.0085 119.378V77.478C96.0085 73.383 99.3285 70.058 103.429 70.058Z" fill="#FFC84D"/>
<path fill-rule="evenodd" clip-rule="evenodd" d="M164.94 83.55H208.86V81.05H164.94V83.55Z" fill="white"/>
<path fill-rule="evenodd" clip-rule="evenodd" d="M113.425 95.385H208.86V92.885H113.425V95.385Z" fill="white"/>
<path fill-rule="evenodd" clip-rule="evenodd" d="M161.97 107.215H208.86V104.715H161.97V107.215Z" fill="white"/>
<path fill-rule="evenodd" clip-rule="evenodd" d="M132.575 107.215H154.04V104.715H132.575V107.215Z" fill="white"/>
<path fill-rule="evenodd" clip-rule="evenodd" d="M293.439 276.82C274.324 276.82 258.769 292.375 258.769 311.49C258.769 330.61 274.324 346.165 293.439 346.165C312.559 346.165 328.114 330.61 328.114 311.49C328.114 292.375 312.559 276.82 293.439 276.82ZM293.439 348.665C272.944 348.665 256.269 331.99 256.269 311.49C256.269 290.995 272.944 274.32 293.439 274.32C313.939 274.32 330.614 290.995 330.614 311.49C330.614 331.99 313.939 348.665 293.439 348.665Z" fill="white"/>
</g>
</svg>
